Coordinates
version=1
nRows=4
nColumns=63
inDegrees=yes

Units are S.I. units (second, meters, Newtons, ...)
If the header above contains a line with 'inDegrees', this indicates whether rotational values are in degrees (yes) or radians (no).

endheader
time	pelvis_tilt	pelvis_list	pelvis_rotation	pelvis_tx	pelvis_ty	pelvis_tz	hip_flexion_r	hip_adduction_r	hip_rotation_r	knee_angle_r	knee_angle_r_beta	ankle_angle_r	subtalar_angle_r	mtp_angle_r	hip_flexion_l	hip_adduction_l	hip_rotation_l	knee_angle_l	knee_angle_l_beta	ankle_angle_l	subtalar_angle_l	mtp_angle_l	L5_S1_Flex_Ext	L5_S1_Lat_Bending	L5_S1_axial_rotation	L4_L5_Flex_Ext	L4_L5_Lat_Bending	L4_L5_axial_rotation	L3_L4_Flex_Ext	L3_L4_Lat_Bending	L3_L4_axial_rotation	L2_L3_Flex_Ext	L2_L3_Lat_Bending	L2_L3_axial_rotation	L1_L2_Flex_Ext	L1_L2_Lat_Bending	L1_L2_axial_rotation	L1_T12_Flex_Ext	L1_T12_Lat_Bending	L1_T12_axial_rotation	Abs_r3	Abs_r2	Abs_r1	Abs_t1	Abs_t2	neck_flexion	neck_bending	neck_rotation	arm_flex_r	arm_add_r	arm_rot_r	elbow_flex_r	pro_sup_r	wrist_flex_r	wrist_dev_r	arm_flex_l	arm_add_l	arm_rot_l	elbow_flex_l	pro_sup_l	wrist_flex_l	wrist_dev_l
      1.52083333	      3.33176947	    -24.61113564	     99.13934346	      0.24503805	      0.69991662	      0.76220049	     57.07630313	     -2.11563135	      0.49594580	     48.45659063	      0.84572705	     25.39817065	    -11.38229744	      0.00000000	     46.13903574	     -2.72571333	    -12.64310453	     32.89407085	      0.57410984	     37.00968133	     15.31093997	      0.00000000	      0.05138442	     -0.58887720	      1.76139916	      0.09542601	     -0.78320668	      1.87148661	      0.08441947	     -1.43179604	      1.87148661	      0.05872726	     -1.43179604	      1.54122426	      0.04771557	     -1.20083840	      1.43113682	      0.02936106	     -0.91217079	      1.32104937	      0.36703379	     -6.66149671	      9.79637371	      0.00000000	      0.00000000	     17.24142488	      6.27753242	      6.12942120	    -22.85750784	    -35.77037426	    -15.48137685	    144.09168377	     50.25300114	     60.85394520	     25.16230884	     -6.43712414	    -44.49548813	      4.69381375	    149.44739194	     83.10732167	     -0.44180306	      5.89854627
      1.54166667	      2.58897234	    -25.20108531	     98.54040604	      0.24667375	      0.69916734	      0.76154911	     57.70211054	     -2.27714710	      1.28772480	     48.64308618	      0.84898201	     25.42647897	    -11.59936343	      0.00000000	     46.43169666	     -2.40421275	    -13.34847309	     32.82062113	      0.57282790	     36.30473403	     14.66601783	      0.00000000	      0.06284945	     -0.72963628	      1.93216068	      0.11671771	     -0.97041626	      2.05292072	      0.10325536	     -1.77403766	      2.05292072	      0.07183063	     -1.77403766	      1.69064059	      0.05836200	     -1.48787431	      1.56988055	      0.03591217	     -1.13020660	      1.44912051	      0.44892731	     -8.25379157	     10.74609803	      0.00000000	      0.00000000	     19.15977753	      6.80107177	      4.43690501	    -22.38563145	    -36.96886178	    -13.18600289	    143.85994037	     50.77585145	     63.63991032	     25.16772999	     -4.98876970	    -45.55954032	      5.65241884	    149.38732769	     82.72885646	     -0.25814241	      6.18780405
      1.56250000	      2.03388292	    -25.69184714	     98.15802071	      0.24801307	      0.69830345	      0.76108099	     58.20413659	     -2.39312622	      1.98706677	     48.80300434	      0.85177311	     25.60895773	    -11.58134914	      0.00000000	     46.74562086	     -2.18696186	    -13.98787922	     32.87051723	      0.57369875	     35.90042410	     14.34332215	      0.00000000	      0.06573553	     -0.84319631	      2.02269027	      0.12207746	     -1.12145109	      2.14910841	      0.10799691	     -2.05014751	      2.14910841	      0.07512914	     -2.05014751	      1.76985398	      0.06104202	     -1.71944592	      1.64343584	      0.03756128	     -1.30611109	      1.51701770	      0.46954235	     -9.53840531	     11.24959646	      0.00000000	      0.00000000	     21.41689683	      7.12506358	      2.90763899	    -21.10383349	    -37.14282181	    -10.34972967	    143.40309133	     49.79529273	     65.15290353	     25.38232090	     -4.05957251	    -45.99149774	      6.49035116	    149.24423425	     79.36049968	     -0.56378887	      7.62413474
      1.58333333	      1.95639557	    -26.00411837	     98.19972509	      0.24828144	      0.69761127	      0.76087507	     58.42057527	     -2.47938116	      2.15004966	     48.75229326	      0.85088804	     25.87169450	    -11.31450358	      0.00000000	     47.10533670	     -2.10016785	    -14.00562847	     33.05915899	      0.57699117	     35.87568094	     14.14910292	      0.00000000	      0.05737082	     -0.88828499	      2.02946542	      0.10654334	     -1.18141904	      2.15630700	      0.09425451	     -2.15977613	      2.15630700	      0.06556910	     -2.15977613	      1.77578224	      0.05327454	     -1.81139076	      1.64894065	      0.03278168	     -1.37595345	      1.52209906	      0.40979400	    -10.04845749	     11.28727781	      0.00000000	      0.00000000	     23.60191535	      7.00181703	      1.53238128	    -19.51647261	    -36.56664129	     -7.56782902	    142.54451063	     46.90877571	     65.82497160	     25.39217526	     -4.10654833	    -45.26768752	      6.85512097	    149.00357802	     74.82893317	     -1.32690472	      9.53762212
